<?xml version="1.0" encoding="UTF-8"?>
<svg width="128px" height="128px" viewBox="0 0 128 128" version="1.1" xmlns="http://www.w3.org/2000/svg" xmlns:xlink="http://www.w3.org/1999/xlink">
    <!-- Generator: Sketch 59.1 (86144) - https://sketch.com -->
    <title>language-english</title>
    <desc>Created with Sketch.</desc>
    <defs>
        <circle id="path-1" cx="64" cy="64" r="62"></circle>
    </defs>
    <g id="界面" stroke="none" stroke-width="1" fill="none" fill-rule="evenodd">
        <g id="画板" transform="translate(-608.000000, -206.000000)">
            <g id="language-english" transform="translate(608.000000, 206.000000)">
                <mask id="mask-2" fill="white">
                    <use xlink:href="#path-1"></use>
                </mask>
                <circle stroke="#FFFFFF" stroke-width="2" cx="64" cy="64" r="63"></circle>
                <g id="英国" mask="url(#mask-2)" fill-rule="nonzero">
                    <g transform="translate(2.000000, 2.000000)">
                        <rect id="矩形" fill="#000000" opacity="0" x="0" y="0" width="124" height="124"></rect>
                        <path d="M0,62 C0,96.2416545 27.7583455,124 62,124 C96.2416545,124 124,96.2416545 124,62 C124,27.7583455 96.2416545,0 62,0 C27.7583455,0 0,27.7583455 0,62 Z" id="路径" fill="#FFFFFF"></path>
                        <path d="M13.0993094,24.3543078 C8.2571586,30.673677 4.60598088,37.9572675 2.48,45.869824 L34.548624,45.869824 L13.0993094,24.3543078 Z M121.52,45.869824 C119.394019,37.957509 115.742601,30.6739185 110.900691,24.3545493 L89.4518575,45.869824 L121.52,45.869824 L121.52,45.869824 Z M2.48,78.1309006 C4.60622168,86.0432156 8.2573994,93.3268061 13.0993094,99.6459338 L34.5479017,78.1309006 L2.48,78.1309006 Z M99.5298593,12.9486229 C93.2299343,8.09152717 85.9689957,4.42908038 78.0807855,2.2962963 L78.0807855,34.463656 L99.5298593,12.9486229 L99.5298593,12.9486229 Z M24.4701407,111.051377 C30.7700657,115.908473 38.0312451,119.57092 45.9192145,121.703704 L45.9192145,89.5365855 L24.4701407,111.051377 Z M45.9189737,2.2962963 C38.0310043,4.42908038 30.7698249,8.09152717 24.4701407,12.9483814 L45.9189737,34.4634145 L45.9189737,2.2962963 Z M78.0810263,121.703704 C85.9689957,119.57092 93.2301751,115.908473 99.5298593,111.051619 L78.0810263,89.5365855 L78.0810263,121.703704 Z M89.4518575,78.1309006 L110.900691,99.6461753 C115.742601,93.3270476 119.394019,86.0432156 121.52,78.1309006 L89.4518575,78.1309006 L89.4518575,78.1309006 Z" id="形状" fill="#0052B4"></path>
                        <path d="M123.47518,53.9131173 L70.087125,53.9131173 L70.087125,0.524820314 C67.4055768,0.175441849 64.7042127,0 62,0 C59.295867,0 56.5945819,0.175418175 53.9131172,0.524820314 L53.9131172,53.9128752 L0.524820312,53.9128752 C0.175441848,56.5944234 0,59.2957875 0,62 C0,64.7413205 0.1801875,67.4397736 0.524820312,70.086883 L53.912875,70.086883 L53.912875,123.47518 C59.2815049,124.17494 64.7182529,124.17494 70.0868828,123.47518 L70.0868828,70.0871252 L123.47518,70.0871252 C123.824574,67.4055785 124,64.7042133 124,62 C124,59.2591642 123.819812,56.5602267 123.47518,53.9131173 Z" id="路径" fill="#D80027"></path>
                        <path d="M105.453882,110.096396 C106.715975,108.803229 107.922587,107.454572 109.070308,106.054236 L84.5370043,78.1309006 L75.7338348,78.1309006 L105.453882,110.096396 Z M41.8882221,78.1309006 L16,104.67094 C17.2636053,105.962559 18.5814332,107.197399 19.949758,108.37197 L49.4895576,78.1309006 L41.8882221,78.1309006 Z M19.6164258,16 C18.3543333,17.2931666 17.1477209,18.6418243 16,20.0421603 L41.4863028,45.6965864 L49.052006,45.6965864 L19.6164258,16 Z M83.2960027,45.869824 L108.093617,19.7007841 C106.830071,18.4091803 105.51224,17.1744192 104.143859,16 L75.6208192,45.869824 L83.2960027,45.869824 Z" id="形状" fill="#D80027"></path>
                    </g>
                </g>
            </g>
        </g>
    </g>
</svg>