<?xml version="1.0" encoding="UTF-8"?>
<svg width="128px" height="128px" viewBox="0 0 128 128" version="1.1" xmlns="http://www.w3.org/2000/svg" xmlns:xlink="http://www.w3.org/1999/xlink">
    <!-- Generator: Sketch 59.1 (86144) - https://sketch.com -->
    <title>language-chinese</title>
    <desc>Created with Sketch.</desc>
    <defs>
        <circle id="path-1" cx="64" cy="64" r="62"></circle>
    </defs>
    <g id="界面" stroke="none" stroke-width="1" fill="none" fill-rule="evenodd">
        <g id="画板备份" transform="translate(-432.000000, -206.000000)">
            <g id="language-chinese" transform="translate(432.000000, 206.000000)">
                <mask id="mask-2" fill="white">
                    <use xlink:href="#path-1"></use>
                </mask>
                <circle stroke="#FFFFFF" stroke-width="2" cx="64" cy="64" r="63"></circle>
                <circle id="Mask" fill="#E72D14" cx="64" cy="64" r="62"></circle>
                <g id="中国" transform="translate(16.176000, 21.128000)" fill="#FFD700" fill-rule="nonzero">
                    <path d="M58.8969348,50.3019699 L55.7899527,54.0027139 L51.2554383,52.4401776 L53.8585854,56.4698766 L50.7516034,60.1706206 L55.4540627,59.0192781 L58.1411824,63.0489771 L58.1411824,58.2791292 L62.9276142,57.0455479 L58.3930998,55.318534 L58.8969348,50.3019699 Z M77.0349924,40.2688417 L72.164588,40.2688417 L70.6530832,35.9924264 L69.1415784,40.5977967 L64.2711741,40.5977967 L68.217881,43.3939144 L66.7063762,47.9992847 L70.6530832,45.1209283 L74.5997902,47.9992847 L73.0882854,43.3939144 L77.0349924,40.2688417 Z M69.0576059,22.6697479 L69.8133583,27.7685507 L72.0806155,23.4921354 L76.9510199,24.2322842 L73.4241753,20.8604952 L75.6914325,16.5840799 L71.4928081,18.3933326 L68.0499361,15.0215436 L68.8056885,19.7913914 L64.439119,21.9295991 L69.0576059,22.6697479 Z M58.9809073,0.712 L55.8739252,4.41274402 L51.2554383,2.60349139 L53.9425579,6.71542919 L50.7516034,10.3339345 L55.5380352,9.18259187 L58.1411824,13.2122909 L58.1411824,8.44244307 L63.0955592,7.29110049 L58.5610448,5.48184785 L58.9809073,0.712 Z M24.8041043,21.8473603 L20.1856174,7.94901053 L15.5671305,21.8473603 L0.704,21.8473603 L12.7120659,30.4001909 L8.09357902,44.216302 L20.1856174,35.9924264 L32.1936833,44.216302 L27.5751964,30.4001909 L39.6672348,22.1763153 L24.8041043,21.8473603 Z" id="形状"></path>
                </g>
            </g>
        </g>
    </g>
</svg>