<svg t="1596789860302" class="icon" viewBox="0 0 1024 1024" version="1.1" xmlns="http://www.w3.org/2000/svg" p-id="3732" width="200" height="200"><path d="M512.001643 86.547016C229.227485 86.547016 0 315.774502 0 598.54866c0 123.218812 43.55125 236.271284 116.07312 324.616227 11.188563-89.587387 100.667482-165.356701 226.137812-201.239644 45.838923 42.709807 105.048902 68.623623 169.787424 68.623623 63.216694 0 121.266402-24.608921 166.638587-65.527375 126.555002 39.018633 214.111093 119.215384 216.990406 212.431494 79.818759-90.297354 128.372651-208.89809 128.372651-338.904324C1024 315.774502 794.772515 86.547016 512.001643 86.547016zM512.001643 729.915664c-32.684802 0-63.482932-8.979775-90.82983-24.533323-65.90208-37.500091-111.277553-114.239038-111.277553-202.837071 0-125.371723 90.662199-227.373681 202.107382-227.373681 111.455044 0 202.107382 102.001958 202.107382 227.373681 0 89.958805-46.795407 167.644374-114.337644 204.493662C573.164033 721.547251 543.473585 729.915664 512.001643 729.915664z" p-id="3733" fill="#ffffff"></path></svg>